#!OML:ASF F:\VICON\USERDATA\INSTALL\rory3\rory3.ASF
:FULLY-SPECIFIED
:DEGREES
3783
root -0.471109 17.1912 0.372274 -2.23126 8.34595 -4.57501
lowerback -3.79471 0.523123 -2.53805
upperback -5.78152 0.655942 -3.01532
thorax -3.83377 0.366587 -1.69076
lowerneck -6.13781 -13.4284 -15.9025
upperneck 27.3507 -24.4544 22.6691
head 16.0509 -10.5084 7.69601
rclavicle 2.38542e-014 -1.43125e-014
rhumerus -39.3761 -2.79442 -91.2586
rradius 23.8472
rwrist 29.6531
rhand -7.15881 16.8039
rfingers 7.12502
rthumb 18.7181 -12.3155
lclavicle 2.38542e-014 -1.43125e-014
lhumerus 218.515 -220.839 -90.3838
lradius 118.849
lwrist 100.529
lhand -22.3586 25.7033
lfingers 7.12502
lthumb 4.06252 55.6443
rfemur 11.791 -0.932976 26.9185
rtibia 2.87449
rfoot -11.3301 -10.124
rtoes -7.26518
lfemur -2.81096 -17.5781 -12.6532
ltibia 24.5978
lfoot -20.1734 3.60465
ltoes -16.9642
3784
root -0.480938 17.1828 0.373339 -2.4626 8.65497 -4.95123
lowerback -3.71184 0.633161 -2.3003
upperback -5.71474 0.794861 -3.18598
thorax -3.80317 0.422573 -2.00008
lowerneck -5.93869 -13.5087 -15.3966
upperneck 27.166 -25.0679 23.7333
head 16.2784 -10.6597 7.96503
rclavicle 9.93923e-015 -5.56597e-014
rhumerus -39.38 -2.80516 -91.6976
rradius 24.1956
rwrist 29.4233
rhand -7.17642 16.9487
rfingers 7.12502
rthumb 18.7011 -12.1723
lclavicle 9.93923e-015 -5.56597e-014
lhumerus 215.177 -221.998 -92.3611
lradius 119.572
lwrist 101.504
lhand -21.7146 25.6052
lfingers 7.12502
lthumb 4.6844 55.5334
rfemur 11.8601 -1.27793 27.3632
rtibia 3.11585
rfoot -11.5016 -10.0912
rtoes -6.9172
lfemur -2.86002 -17.6073 -12.1904
ltibia 24.8616
lfoot -20.3253 3.22977
ltoes -16.8647
3785
root -0.490133 17.1755 0.373462 -2.6143 8.88315 -5.13581
lowerback -3.65622 0.746735 -2.2974
upperback -5.66496 0.94098 -3.38108
thorax -3.7773 0.491128 -2.20351
lowerneck -5.62733 -13.6002 -14.9646
upperneck 26.8638 -25.7012 24.8961
head 16.4829 -10.84 8.29058
rclavicle 5.96354e-015 -3.18055e-015
rhumerus -39.3528 -2.7641 -92.0978
rradius 24.5109
rwrist 29.2005
rhand -7.11319 17.0055
rfingers 7.12502
rthumb 18.762 -12.1097
lclavicle 5.96354e-015 -3.18055e-015
lhumerus 211.611 -222.879 -94.5414
lradius 120.275
lwrist 102.073
lhand -20.9536 25.3996
lfingers 7.12502
lthumb 5.41913 55.3104
rfemur 11.9594 -1.52899 27.5808
rtibia 3.16332
rfoot -11.567 -10.0213
rtoes -6.69232
lfemur -2.96311 -17.6137 -11.9418
ltibia 25.1609
lfoot -20.4478 2.97923
ltoes -16.8206
3786
root -0.493536 17.1685 0.371289 -2.68397 9.00964 -5.26454
lowerback -3.615 0.936722 -2.26105
upperback -5.65274 1.18627 -3.63755
thorax -3.77751 0.606712 -2.48988
lowerneck -5.0748 -13.6827 -14.5109
upperneck 26.2525 -26.29 26.2172
head 16.5122 -11.0301 8.69025
rclavicle 7.95139e-015 2.38542e-014
rhumerus -39.4191 -2.77766 -92.4844
rradius 24.9257
rwrist 28.8816
rhand -6.93602 17.0204
rfingers 7.12502
rthumb 18.9324 -12.0782
lclavicle 7.95139e-015 2.38542e-014
lhumerus 207.835 -223.272 -96.8149
lradius 120.892
lwrist 102.471
lhand -19.9943 25.0614
lfingers 7.12502
lthumb 6.3453 54.9464
rfemur 12.0387 -1.66504 27.7031
rtibia 3.06582
rfoot -11.5072 -10.0278
rtoes -6.90412
lfemur -3.1207 -17.6304 -11.7839
ltibia 25.4862
lfoot -20.6529 2.80987
ltoes -16.3965
3787
root -0.49882 17.1617 0.371082 -2.77287 9.22864 -5.40201
lowerback -3.627 1.12725 -2.33832
upperback -5.60073 1.43868 -3.85816
thorax -3.70724 0.731168 -2.67338
lowerneck -4.48596 -13.8088 -14.021
upperneck 25.5263 -26.8668 27.4776
head 16.4623 -11.2331 9.04758
rclavicle 4.77083e-015 -4.77083e-014
rhumerus -39.4761 -2.83533 -92.7618
rradius 25.2558
rwrist 28.467
rhand -6.91174 17.0245
rfingers 7.12502
rthumb 18.9557 -12.0719
lclavicle 4.77083e-015 -4.77083e-014
lhumerus 203.976 -223.208 -99.0595
lradius 121.458
lwrist 102.589
lhand -19.1323 24.6902
lfingers 7.12502
lthumb 7.17749 54.5485
rfemur 11.9935 -1.89246 27.8509
rtibia 3.26385
rfoot -11.6275 -10.0174
rtoes -6.281
lfemur -3.28371 -17.7238 -11.6169
ltibia 25.7943
lfoot -20.8029 2.71591
ltoes -16.4828
